<svg width="190" height="24" viewBox="0 0 190 24" fill="none" xmlns="http://www.w3.org/2000/svg">
<path d="M33.1424 0V0.346802H32.4716V2.09681H32.0555V0.346802H31.3848V0H33.1424ZM35.4081 2.09681L35.3307 0.863002C35.3227 0.701606 35.3227 0.500194 35.3161 0.277441H35.2934C35.24 0.462846 35.1774 0.709609 35.116 0.901683L34.7386 2.06614H34.3066L33.9292 0.871005C33.8905 0.709609 33.8292 0.462846 33.7825 0.277441H33.7598C33.7598 0.469516 33.7518 0.670927 33.7438 0.863002L33.6678 2.09681H33.2664L33.4211 0H34.0452L34.4079 1.02573C34.4533 1.18846 34.4933 1.34185 34.5466 1.55794H34.5546C34.6079 1.36586 34.6546 1.18846 34.7013 1.03373L35.064 0.00133414H35.6655L35.8268 2.09815H35.4107L35.4081 2.09681Z" fill="white"/>
<path d="M18.1148 8.84612L17.1493 8.32458L17.048 8.26989L16.9493 8.21654L16.3185 7.87641L16.2171 7.82039L16.1171 7.76703L6.57694 2.60636C5.58745 2.07149 4.4486 1.95411 3.36709 2.27557C2.28692 2.59836 1.39744 3.32131 0.862693 4.31102C-0.244151 6.35582 0.521304 8.92081 2.56697 10.0279L14.1035 16.2677C14.1168 16.2757 14.1288 16.281 14.1422 16.2863C14.2008 16.3183 14.2648 16.349 14.3275 16.3784C14.3755 16.401 14.4209 16.4197 14.4689 16.4411C14.7943 16.5811 15.1343 16.6758 15.4797 16.7278C15.5424 16.7372 15.6064 16.7452 15.6691 16.7532C15.7664 16.7625 15.8638 16.7705 15.9598 16.7759C16.0158 16.7759 16.0705 16.7772 16.1265 16.7772C16.1758 16.7772 16.2265 16.7772 16.2758 16.7759C16.3718 16.7705 16.4692 16.7625 16.5665 16.7532C16.6292 16.7452 16.6919 16.7385 16.7559 16.7278C16.9453 16.6972 17.1346 16.6558 17.3213 16.5998C17.472 16.5544 17.6214 16.5024 17.7667 16.4411C17.8147 16.4224 17.8627 16.401 17.9108 16.3784C17.9721 16.349 18.0348 16.3197 18.0961 16.2863C18.3402 16.1583 18.5695 16.0076 18.7816 15.8355C18.8122 15.8102 18.8402 15.7875 18.8696 15.7608C18.9669 15.6808 19.0589 15.5927 19.1443 15.5034C19.4137 15.2286 19.643 14.9151 19.8297 14.5683C19.8604 14.5123 19.8871 14.4576 19.9137 14.4016C19.9391 14.3536 19.9618 14.3056 19.9804 14.2562C20.0031 14.2109 20.0218 14.1628 20.0391 14.1162C20.8166 12.1567 20.0164 9.87318 18.1148 8.84478M18.9643 14.0988C18.6615 14.6564 18.2121 15.1059 17.6627 15.4007C17.6054 15.4313 17.548 15.4607 17.4907 15.4874C17.4413 15.51 17.3933 15.5314 17.344 15.5501C17.2947 15.5714 17.244 15.5901 17.1933 15.6074C17.144 15.6247 17.092 15.6421 17.0399 15.6568C16.9253 15.6914 16.8092 15.7181 16.6946 15.7408C16.6159 15.7555 16.5399 15.7661 16.4612 15.7728C16.4025 15.7781 16.3452 15.7848 16.2878 15.7861C16.2358 15.7901 16.1851 15.7915 16.1331 15.7915H16.1118C15.9704 15.7915 15.8304 15.7821 15.6917 15.7635C15.6251 15.7555 15.5584 15.7448 15.4917 15.7301C15.405 15.7128 15.3237 15.6914 15.241 15.6688C15.1823 15.6554 15.125 15.6368 15.0676 15.6154C15.0183 15.5981 14.9689 15.5807 14.9209 15.5594C14.8823 15.546 14.8463 15.53 14.8076 15.514C14.7729 15.4994 14.7369 15.4834 14.7022 15.466C14.6756 15.4527 14.6502 15.4393 14.6262 15.426C14.5782 15.4033 14.5302 15.3766 14.4822 15.35L13.8741 15.0232L13.5834 14.8645L12.4672 14.2629L12.3299 14.1869L12.1965 14.1162L3.03371 9.16091C1.46546 8.31258 0.878697 6.34781 1.72683 4.77787C2.57497 3.20926 4.54195 2.62237 6.1102 3.46937L15.085 8.32325L15.185 8.3766L15.2863 8.43262L15.9171 8.77275L16.0171 8.82744L16.1185 8.8808L17.6467 9.70778C18.4095 10.1213 18.9656 10.8029 19.2136 11.6339C19.4643 12.4635 19.3737 13.3385 18.9656 14.0975" fill="white"/>
<path d="M31.3719 4.30981C30.8385 3.32009 29.9477 2.59714 28.8662 2.27435C27.786 1.95289 26.6458 2.07027 25.6563 2.60514L16.1188 7.76581L16.0174 7.81917L15.9174 7.87519L15.2867 8.21532L15.1853 8.27134L15.0853 8.32469L14.1198 8.84623C12.2168 9.87463 11.418 12.1582 12.1955 14.1176C12.2128 14.1656 12.2315 14.211 12.2542 14.2577V14.2603C12.2728 14.3097 12.2968 14.3564 12.3208 14.4031C12.3475 14.4591 12.3742 14.5138 12.4049 14.5698C12.5916 14.9179 12.8236 15.2314 13.0903 15.5061C13.1757 15.5955 13.2677 15.6822 13.3637 15.7622C13.6011 15.965 13.8611 16.1411 14.1398 16.2878C14.1985 16.3198 14.2625 16.3505 14.3252 16.3798C14.3732 16.4025 14.4185 16.4212 14.4665 16.4425C14.6119 16.5039 14.7586 16.5546 14.9119 16.6012C15.1 16.6573 15.288 16.6986 15.4774 16.7293C15.54 16.7386 15.604 16.7466 15.6667 16.7546C15.7641 16.764 15.8614 16.772 15.9574 16.7773C16.0134 16.7773 16.0681 16.7786 16.1241 16.7786C16.1735 16.7786 16.2241 16.7786 16.2735 16.7773C16.3695 16.772 16.4668 16.764 16.5642 16.7546C16.6269 16.7466 16.6909 16.74 16.7536 16.7293C17.0989 16.6773 17.4377 16.5839 17.7644 16.4425C17.8124 16.4238 17.8604 16.4025 17.9084 16.3798C17.9698 16.3505 18.0324 16.3211 18.0938 16.2878C18.1071 16.2824 18.1191 16.2758 18.1324 16.2691L29.669 10.0294C31.7133 8.92359 32.4774 6.3586 31.3719 4.31247M30.7598 7.24294C30.5131 8.06993 29.9597 8.75286 29.2009 9.16369L20.0394 14.1189L19.9074 14.1896H19.9047L19.7674 14.2657L18.6552 14.8672L18.3605 15.026H18.3591L17.663 15.4021C17.6057 15.4328 17.5484 15.4621 17.491 15.4888C17.4417 15.5115 17.3937 15.5342 17.3443 15.5515C17.295 15.5742 17.243 15.5942 17.1936 15.6089C17.1416 15.6302 17.0923 15.6449 17.0403 15.6582C16.9256 15.6942 16.8096 15.7209 16.6949 15.7422C16.6162 15.7569 16.5402 15.7676 16.4615 15.7743C16.4028 15.7796 16.3455 15.7863 16.2881 15.7876C16.2361 15.7916 16.1855 15.7929 16.1335 15.7929H16.1121C15.9708 15.7929 15.8321 15.7836 15.6921 15.7649C15.6254 15.7556 15.5587 15.7462 15.492 15.7316C15.4053 15.7142 15.324 15.6929 15.2413 15.6702C15.184 15.6555 15.1253 15.6382 15.068 15.6169C15.0186 15.5995 14.9693 15.5822 14.9213 15.5608C14.8826 15.5475 14.8466 15.5315 14.8092 15.5155C14.7746 15.5008 14.7386 15.4848 14.7039 15.4675C14.6772 15.4541 14.6519 15.4408 14.6279 15.4274C14.5799 15.4048 14.5319 15.3781 14.4839 15.3514C13.9891 15.0633 13.5637 14.6391 13.273 14.0989C12.8623 13.34 12.7743 12.465 13.0223 11.6353C13.2703 10.8043 13.8291 10.1214 14.5892 9.70923L16.1201 8.88224L16.2201 8.82889L16.3215 8.7742L16.9523 8.43407L17.0509 8.37805L17.1523 8.32469L26.1271 3.47081C26.6045 3.21338 27.1286 3.08266 27.658 3.08266C27.97 3.08266 28.2834 3.12668 28.5888 3.21871C29.4183 3.46681 30.0997 4.02169 30.5104 4.78065C30.9198 5.53962 31.0092 6.41329 30.7625 7.24294" fill="white"/>
<path d="M4.57441 2.00342C2.19536 2.00342 0.261719 3.94284 0.261719 6.3291V19.6863C0.261719 22.0632 2.19536 23.9999 4.57441 23.9999C6.95346 23.9999 8.8871 22.0645 8.8871 19.6863V6.3291C8.8871 3.94417 6.95079 2.00342 4.57441 2.00342ZM4.57441 22.8235C2.84347 22.8235 1.43524 21.4149 1.43524 19.6849V6.32776C1.43524 4.58976 2.84347 3.17587 4.57441 3.17587C6.30535 3.17587 7.71224 4.58976 7.71224 6.32776V19.6849C7.71224 21.4149 6.30402 22.8235 4.57441 22.8235Z" fill="white"/>
<path d="M27.6643 2.00342C25.2852 2.00342 23.3516 3.94284 23.3516 6.3291V19.6863C23.3516 22.0632 25.2852 23.9999 27.6643 23.9999C30.0433 23.9999 31.9769 22.0645 31.9769 19.6863V6.3291C31.9769 3.94417 30.042 2.00342 27.6643 2.00342ZM27.6643 22.8235C25.9333 22.8235 24.5251 21.4149 24.5251 19.6849V6.32776C24.5251 4.58976 25.9333 3.17587 27.6643 3.17587C29.3952 3.17587 30.8021 4.58976 30.8021 6.32776V19.6849C30.8021 21.4149 29.3939 22.8235 27.6643 22.8235Z" fill="white"/>
<path d="M16.1193 8.25C13.7403 8.25 11.8066 10.1894 11.8066 12.5757V19.4477C11.8066 21.8246 13.7403 23.7613 16.1193 23.7613C18.4984 23.7613 20.432 21.8246 20.432 19.4477V12.5757C20.432 10.1908 18.497 8.25 16.1193 8.25ZM19.2572 19.4477C19.2572 21.1777 17.8489 22.5862 16.1193 22.5862C14.3897 22.5862 12.9802 21.1777 12.9802 19.4477V12.5757C12.9802 10.8377 14.3884 9.42379 16.1193 9.42379C17.8503 9.42379 19.2572 10.8377 19.2572 12.5757V19.4477Z" fill="white"/>
<path d="M47.025 4.11426L52.2974 14.6061L57.548 4.11426H60.7213V19.9092H58.2319L58.2103 8.10835L53.1646 18.2611H51.4085L46.3628 8.10835V19.9092H43.8281V4.11426H47.025Z" fill="white"/>
<path d="M71.4941 14.6515V19.9092H68.8235V14.7422L62.8652 4.11426H65.5812L70.148 11.8067L74.622 4.11426H77.3597L71.4941 14.6515Z" fill="white"/>
<path d="M84.528 6.50567C82.9532 6.50567 81.9264 7.09315 81.9264 8.15377C81.9264 11.6057 90.5553 9.75456 90.5316 15.4421C90.5316 18.2632 88.0206 20 84.5044 20C81.9934 20 79.6203 18.9847 77.9766 17.4943L79.1414 15.1917C80.7852 16.6821 82.8389 17.4943 84.5517 17.4943C86.4241 17.4943 87.5417 16.7945 87.5417 15.5761C87.5417 12.0552 78.9128 14.0187 78.9128 8.4002C78.9128 5.69345 81.2641 4 84.733 4C86.8104 4 88.8425 4.65451 90.3247 5.62445L89.2052 7.97043C87.4707 6.9315 85.7362 6.5037 84.5261 6.5037" fill="white"/>
<path d="M100.232 14.6515V19.9092H97.5617V14.7422L91.6035 4.11426H94.3195L98.8843 11.8067L103.358 4.11426H106.098L100.232 14.6515Z" fill="white"/>
<path d="M117.421 16.3429H109.363L107.834 19.9092H105.027L112.081 4.11426H114.843L121.828 19.9092H118.952L117.423 16.3429H117.421ZM116.394 13.9733L113.38 6.95507L110.367 13.9733H116.394Z" fill="white"/>
<path d="M134.084 19.9092L131.163 15.1246C130.934 15.1483 130.684 15.1483 130.432 15.1483H126.642V19.9092H123.947V4.11426H130.43C134.516 4.11426 136.867 6.07778 136.867 9.50805C136.867 12.0354 135.68 13.8176 133.558 14.6298L137.143 19.9112H134.084V19.9092ZM130.432 12.755C132.897 12.755 134.313 11.716 134.313 9.57311C134.313 7.43018 132.897 6.50361 130.432 6.50361H126.642V12.753H130.432V12.755Z" fill="white"/>
<path d="M143.147 4.11426H140.453V19.9092H143.147V4.11426Z" fill="white"/>
<path d="M158.007 19.9092L152.756 12.9363L150.04 15.8915V19.9092H147.346V4.11426H150.04V12.2818L157.664 4.11426H160.837L154.65 10.8604L161.247 19.9092H158.007Z" fill="white"/>
<path d="M174.052 16.3429H165.994L164.465 19.9092H161.656L168.71 4.11426H171.472L178.457 19.9092H175.581L174.052 16.3429ZM173.025 13.9733L170.011 6.95507L166.998 13.9733H173.025Z" fill="white"/>
<path d="M189.917 4.11426V6.50558H184.849V19.9092H182.157V6.50558H177.111V4.11426H189.917Z" fill="white"/>
</svg>
